<svg width="48" height="48" viewBox="0 0 48 48" fill="none" xmlns="http://www.w3.org/2000/svg">
<path d="M14.3394 43.95C13.3465 43.95 12.5 43.5965 11.8 42.8894C11.1 42.1823 10.75 41.3323 10.75 40.3394C10.75 39.3465 11.1036 38.5 11.8106 37.8C12.5177 37.1 13.3677 36.75 14.3606 36.75C15.3536 36.75 16.2 37.1035 16.9 37.8106C17.6 38.5177 17.95 39.3677 17.95 40.3606C17.95 41.3535 17.5965 42.2 16.8894 42.9C16.1823 43.6 15.3323 43.95 14.3394 43.95ZM34.3395 43.95C33.3465 43.95 32.5 43.5965 31.8 42.8894C31.1 42.1823 30.75 41.3323 30.75 40.3394C30.75 39.3465 31.1036 38.5 31.8106 37.8C32.5177 37.1 33.3677 36.75 34.3606 36.75C35.3536 36.75 36.2001 37.1035 36.9001 37.8106C37.6 38.5177 37.9501 39.3677 37.9501 40.3606C37.9501 41.3535 37.5965 42.2 36.8895 42.9C36.1824 43.6 35.3324 43.95 34.3395 43.95ZM11.75 10.95L17.25 22.35H31.65L37.9001 10.95H11.75ZM10.25 7.95H39.7037C40.4692 7.95 41.0516 8.3 41.451 9C41.8504 9.7 41.85 10.4 41.4501 11.1L34.7001 23.25C34.3334 23.8833 33.8574 24.3917 33.2721 24.775C32.6868 25.1583 32.0461 25.35 31.35 25.35H16.2L13.4 30.55H37.9501V33.55H13.85C12.45 33.55 11.4417 33.0833 10.825 32.15C10.2084 31.2167 10.2167 30.1667 10.85 29L14.05 23.1L6.45005 7H2.55005V4H8.40005L10.25 7.95Z" fill="white"/>
</svg>
